<?xml version="1.0" encoding="UTF-8"?>
<svg id="f526fcf5-c81c-4dcc-8280-e22f881154e7" xmlns="http://www.w3.org/2000/svg" xmlns:xlink="http://www.w3.org/1999/xlink" version="1.1" viewBox="0 0 240.9 113.4">
  <!-- Generator: Adobe Illustrator 29.6.1, SVG Export Plug-In . SVG Version: 2.1.1 Build 9)  -->
  <defs>
    <style>
      .st0 {
        fill: url(#Sfumatura_senza_nome_81);
      }

      .st1 {
        fill: url(#Sfumatura_senza_nome_8);
        fill-rule: evenodd;
      }

      .st2 {
        fill: #195c7e;
      }
    </style>
    <linearGradient id="Sfumatura_senza_nome_8" data-name="Sfumatura senza nome 8" x1="18" y1="56.1" x2="87.8" y2="56.1" gradientUnits="userSpaceOnUse">
      <stop offset="0" stop-color="#1dabac"/>
      <stop offset="1" stop-color="#195c7e"/>
    </linearGradient>
    <linearGradient id="Sfumatura_senza_nome_81" data-name="Sfumatura senza nome 8" x1="6.7" y1="56.7" x2="99.6" y2="56.7" xlink:href="#Sfumatura_senza_nome_8"/>
  </defs>
  <g>
    <path class="st2" d="M121.8,41.7c1,.6,2.2.9,3.6.9s2.5-.3,3.5-.9,1.9-1.5,2.5-2.6c.6-1.1.9-2.5.9-4.1s-.3-3-.9-4.1c-.6-1.1-1.4-2-2.5-2.6s-2.2-.9-3.5-.9-2.5.3-3.6.9-1.9,1.5-2.5,2.6c-.6,1.1-.9,2.5-.9,4.1s.3,3,.9,4.1c.6,1.1,1.4,2,2.5,2.6ZM122.1,32.3c.3-.7.8-1.3,1.3-1.6.6-.4,1.2-.6,2-.6s1.4.2,2,.6c.6.4,1,.9,1.3,1.6.3.7.5,1.6.5,2.7s-.2,1.9-.5,2.7-.8,1.3-1.3,1.6c-.6.4-1.2.6-2,.6s-1.4-.2-2-.6c-.6-.4-1-.9-1.3-1.6-.3-.7-.5-1.6-.5-2.7s.2-1.9.5-2.7Z"/>
    <polygon class="st2" points="147.2 27.6 144.1 27.6 144.1 36.9 144 36.9 137.6 27.6 134.8 27.6 134.8 42.4 138 42.4 138 33.1 138.1 33.1 144.5 42.4 147.2 42.4 147.2 27.6"/>
    <path class="st2" d="M162.8,39.1c.6-1.1.9-2.5.9-4.1s-.3-3-.9-4.1c-.6-1.1-1.4-2-2.5-2.6s-2.2-.9-3.5-.9-2.5.3-3.6.9-1.9,1.5-2.5,2.6c-.6,1.1-.9,2.5-.9,4.1s.3,3,.9,4.1c.6,1.1,1.4,2,2.5,2.6s2.2.9,3.6.9,2.5-.3,3.5-.9,1.9-1.5,2.5-2.6ZM160,37.7c-.3.7-.8,1.3-1.3,1.6-.6.4-1.2.6-2,.6s-1.4-.2-2-.6c-.6-.4-1-.9-1.3-1.6-.3-.7-.5-1.6-.5-2.7s.2-1.9.5-2.7c.3-.7.8-1.3,1.3-1.6.6-.4,1.2-.6,2-.6s1.4.2,2,.6c.6.4,1,.9,1.3,1.6.3.7.5,1.6.5,2.7s-.2,1.9-.5,2.7Z"/>
    <path class="st2" d="M169.3,37.2h2.3l2.8,5.3h3.5l-3.2-5.8s.1,0,.1,0c.8-.4,1.4-.9,1.8-1.6.4-.7.6-1.6.6-2.5s-.2-1.8-.6-2.6c-.4-.7-1-1.3-1.8-1.7s-1.8-.6-2.9-.6h-5.9v14.8h3.1v-5.3ZM171.4,30.1c.6,0,1.1,0,1.5.3s.7.4.9.8.3.8.3,1.2,0,.9-.3,1.2c-.2.3-.5.6-.9.7s-.9.2-1.5.2h-2.1v-4.5h2.1Z"/>
    <path class="st2" d="M183.8,39h5.4l1.1,3.4h3.4l-5.1-14.8h-4l-5.1,14.8h3.4l1.1-3.4ZM186.6,31l1.8,5.6h-3.8l1.8-5.6h.1Z"/>
    <polygon class="st2" points="204.8 36.9 204.7 36.9 198.3 27.6 195.5 27.6 195.5 42.4 198.7 42.4 198.7 33.1 198.8 33.1 205.2 42.4 207.9 42.4 207.9 27.6 204.8 27.6 204.8 36.9"/>
    <polygon class="st2" points="221.6 29.4 221.6 27.6 210.2 27.6 210.2 30.2 217.7 30.2 210.3 40.6 210.3 42.4 221.6 42.4 221.6 39.8 214.2 39.8 221.6 29.4"/>
    <polygon class="st2" points="227.2 39.8 227.2 36.3 233.6 36.3 233.6 33.7 227.2 33.7 227.2 30.2 234.1 30.2 234.1 27.6 224.1 27.6 224.1 42.4 234.1 42.4 234.1 39.8 227.2 39.8"/>
    <polygon class="st2" points="128.5 51.9 128.5 49.3 118.7 49.3 118.7 64.1 121.8 64.1 121.8 58 127.8 58 127.8 55.4 121.8 55.4 121.8 51.9 128.5 51.9"/>
    <path class="st2" d="M139.9,63.7c.9-.5,1.6-1.1,2.2-1.9.5-.8.8-1.8.8-2.8v-9.6h-3.1v9.4c0,.6-.1,1.1-.4,1.5s-.6.8-1.1,1c-.5.3-1,.4-1.6.4s-1.1-.1-1.6-.4-.8-.6-1.1-1c-.2-.4-.4-.9-.4-1.5v-9.4h-3.1v9.6c0,1.1.3,2,.8,2.8.5.8,1.2,1.4,2.2,1.9.9.5,2,.7,3.2.7s2.3-.2,3.2-.7Z"/>
    <polygon class="st2" points="145.8 64.1 148.9 64.1 148.9 54.8 149 54.8 155.5 64.1 158.2 64.1 158.2 49.3 155.1 49.3 155.1 58.6 155 58.6 148.6 49.3 145.8 49.3 145.8 64.1"/>
    <polygon class="st2" points="171.2 61.5 164.3 61.5 164.3 58 170.7 58 170.7 55.4 164.3 55.4 164.3 51.9 171.2 51.9 171.2 49.3 161.2 49.3 161.2 64.1 171.2 64.1 171.2 61.5"/>
    <path class="st2" d="M183.1,63.6c.8-.4,1.3-.8,1.7-1.5s.6-1.3.6-2.1-.2-1.4-.5-1.9c-.3-.5-.7-.9-1.2-1.2-.5-.3-1-.5-1.6-.5h0c.5-.3,1-.5,1.4-.7.4-.3.7-.6,1-1.1.2-.4.3-.9.3-1.5s-.2-1.4-.6-2c-.4-.6-.9-1-1.6-1.3-.7-.3-1.6-.5-2.7-.5h-5.9v14.8h6.3c1.1,0,2-.2,2.8-.5ZM177.1,51.8h2.4c.7,0,1.2.2,1.6.5.4.3.6.8.6,1.3s0,.7-.3,1-.5.5-.8.6c-.3.2-.7.2-1.1.2h-2.3v-3.7ZM177.1,61.6v-3.9h2.6c.5,0,.9,0,1.3.3s.6.4.8.7.3.7.3,1.1-.2,1-.6,1.3-1,.5-1.9.5h-2.6Z"/>
    <path class="st2" d="M196.5,58.3c.8-.4,1.4-.9,1.8-1.6.4-.7.6-1.6.6-2.5s-.2-1.8-.6-2.6c-.4-.7-1-1.3-1.8-1.7s-1.8-.6-2.9-.6h-5.9v14.8h3.1v-5.3h2.3l2.8,5.3h3.5l-3.2-5.8s.1,0,.1,0ZM190.9,51.8h2.1c.6,0,1.1,0,1.5.3s.7.4.9.8.3.8.3,1.2,0,.9-.3,1.2c-.2.3-.5.6-.9.7s-.9.2-1.5.2h-2.1v-4.5Z"/>
    <rect class="st2" x="201.5" y="49.3" width="3.1" height="14.8"/>
    <path class="st2" d="M123.4,74.1c.6-.4,1.2-.6,2-.6s.8,0,1.2.2.7.3,1,.5c.3.2.5.5.7.8.2.3.3.7.4,1.1h3.2c-.1-.9-.3-1.6-.7-2.3-.4-.7-.8-1.2-1.4-1.7-.6-.5-1.2-.8-2-1.1-.7-.2-1.5-.4-2.4-.4-1.3,0-2.5.3-3.5.9s-1.9,1.5-2.5,2.6c-.6,1.1-.9,2.5-.9,4.1s.3,3,.9,4.1c.6,1.1,1.4,2,2.5,2.6s2.2.9,3.5.9,1.8-.1,2.6-.4c.8-.3,1.4-.7,2-1.2.5-.5,1-1.1,1.3-1.7.3-.6.5-1.3.6-2h-3.2c0,.4-.2.7-.4,1-.2.3-.4.6-.7.8s-.6.4-1,.5c-.4.1-.8.2-1.2.2-.7,0-1.4-.2-2-.6-.6-.4-1-.9-1.3-1.6s-.5-1.6-.5-2.7.2-1.9.5-2.6c.3-.7.8-1.3,1.3-1.7Z"/>
    <polygon class="st2" points="137.3 71 134.2 71 134.2 85.8 143.7 85.8 143.7 83.2 137.3 83.2 137.3 71"/>
    <path class="st2" d="M155.5,71.7c-1.1-.6-2.2-.9-3.5-.9s-2.5.3-3.6.9-1.9,1.5-2.5,2.6c-.6,1.1-.9,2.5-.9,4.1s.3,3,.9,4.1c.6,1.1,1.4,2,2.5,2.6s2.2.9,3.6.9,2.5-.3,3.5-.9,1.9-1.5,2.5-2.6c.6-1.1.9-2.5.9-4.1s-.3-3-.9-4.1c-.6-1.1-1.4-2-2.5-2.6ZM155.2,81c-.3.7-.8,1.3-1.3,1.6-.6.4-1.2.6-2,.6s-1.4-.2-2-.6c-.6-.4-1-.9-1.3-1.6-.3-.7-.5-1.6-.5-2.7s.2-1.9.5-2.7c.3-.7.8-1.3,1.3-1.6.6-.4,1.2-.6,2-.6s1.4.2,2,.6c.6.4,1,.9,1.3,1.6.3.7.5,1.6.5,2.7s-.2,1.9-.5,2.7Z"/>
    <path class="st2" d="M170.5,80.3c0,.6-.1,1.1-.4,1.5s-.6.8-1.1,1c-.5.3-1,.4-1.6.4s-1.1-.1-1.6-.4-.8-.6-1.1-1c-.2-.4-.4-.9-.4-1.5v-9.4h-3.1v9.6c0,1.1.3,2,.8,2.8.5.8,1.2,1.4,2.2,1.9.9.5,2,.7,3.2.7s2.3-.2,3.2-.7c.9-.5,1.6-1.1,2.2-1.9.5-.8.8-1.8.8-2.8v-9.6h-3.1v9.4Z"/>
    <path class="st2" d="M185.7,71.9c-1.1-.6-2.4-.9-3.9-.9h-5.3v14.8h5.3c1.5,0,2.8-.3,3.9-.9s1.9-1.4,2.5-2.6c.6-1.1.9-2.4.9-4s-.3-2.9-.9-4c-.6-1.1-1.4-2-2.5-2.5ZM185.5,81.1c-.3.7-.8,1.2-1.4,1.5s-1.4.5-2.3.5h-2v-9.5h2c.9,0,1.7.2,2.3.5.6.3,1.1.8,1.4,1.5s.5,1.6.5,2.7-.2,2-.5,2.7Z"/>
  </g>
  <g>
    <path class="st1" d="M72.4,40c-.4,0-.7,0-1.1,0-3.9,0-7.5,1.4-10.3,3.7-1.1.9-1.5,1.4-2.9,3.1l-7.4,7.8-8.2,8.7-.8.9c-1.9,1.8-4.5,2.9-7.3,2.9-5.8,0-10.6-4.8-10.6-10.6s4.8-10.6,10.6-10.6,1.8.1,2.6.3c1.5.4,2.9,1.1,4,2,.3.3.8.2,1-.1,1.1-1.5,2.1-2.8,3.2-3.9,6.8-7.6,12.1-7.6,15.4-6.9.8.2,1.2-.9.5-1.3-9.5-5.4-16.5,0-20.5,4.8-.2.2-.5.3-.8.2-2.2-.8-4.5-1.1-7-.8-7.4.7-14,7.4-14.7,14.8-.9,9.7,6.8,17.9,16.3,17.9s1.1,0,1.7,0c3.8-.4,7.2-2.1,9.7-4.6l.9-.9,8.3-8.8,7.5-7.9c1-1.1,1.5-1.8,2.4-2.5,1.8-1.3,3.9-2.1,6.3-2.2,5.9,0,10.7,4.7,10.7,10.6,0,5.9-4.8,10.6-10.6,10.6s-2.1-.2-3-.4c-1.3-.4-2.5-1-3.6-1.9-.3-.3-.8-.2-1,.1-.8,1-1.9,2.4-3.3,3.8-3.6,3.6-9.1,7.4-15.7,6.7-.8,0-1.1,1-.4,1.3,4.2,2.4,12.3,4.7,20.3-4.7.2-.2.5-.3.8-.2,1.9.7,3.9,1.1,6,1.1,9,0,16.3-7.4,16.3-16.4,0-8.7-6.8-15.8-15.3-16.4"/>
    <path class="st0" d="M53.2,103.1c-25.6,0-46.4-20.8-46.4-46.4S27.6,10.2,53.2,10.2s46.4,20.8,46.4,46.4-20.8,46.4-46.4,46.4ZM53.2,16.2c-22.4,0-40.5,18.2-40.5,40.5s18.2,40.5,40.5,40.5,40.5-18.2,40.5-40.5-18.2-40.5-40.5-40.5Z"/>
  </g>
</svg>